<?xml version="1.0" encoding="UTF-8" standalone="no"?>
<svg width="172px" height="137px" viewBox="0 0 172 137" version="1.1" xmlns="http://www.w3.org/2000/svg" xmlns:xlink="http://www.w3.org/1999/xlink">
    <!-- Generator: sketchtool 40.3 (33839) - http://www.bohemiancoding.com/sketch -->
    <title>A8253A64-D7E6-421C-BB17-ED009DFFB660</title>
    <desc>Created with sketchtool.</desc>
    <defs></defs>
    <g id="Page-1" stroke="none" stroke-width="1" fill="none" fill-rule="evenodd">
        <g id="Desktop-HD-Copy-5" transform="translate(-330.000000, -152.000000)" fill="#FFFEF4">
            <path d="M451.714327,151.451088 C438.022472,151.451088 425.748569,157.586895 417.384335,167.289711 C409.387944,163.267095 400.387234,160.995167 390.859944,160.995167 C357.792982,160.995167 330.986985,188.23235 330.986985,221.831234 C330.986985,255.429355 357.792982,282.666538 390.859944,282.666538 C400.400971,282.666538 409.415418,280.387742 417.420967,276.353678 C423.473589,279.36816 430.277161,281.065428 437.472997,281.065428 C462.674068,281.065428 483.103863,260.307474 483.103863,234.700402 C483.103863,233.644952 483.056547,232.600186 482.987862,231.562288 C491.822203,223.107238 497.345193,211.120283 497.345193,197.816114 C497.345193,172.209041 476.915398,151.451088 451.714327,151.451088 Z" id="Fill-1" transform="translate(414.166089, 217.058813) rotate(21.000000) translate(-414.166089, -217.058813) "></path>
        </g>
    </g>
</svg>