<svg xmlns="http://www.w3.org/2000/svg" width="836" height="76"><path fill="#F7FBFF" fill-rule="evenodd" d="M223.017 37.717c3.65 3.248 7.838 6.312 12.638 9.11 46.622 27.166 80.763-27.004 80.763-27.004s-13.29 19.71 4.053 27.003c17.35 7.294 27.6-16.317 27.6-16.317s-1.39 52.27 55.07 44.75c56.47-7.53 53.25-58.41 53.25-58.41s-1.35 37.18 55.72 22.68c13.82-3.51 23.306-9.58 29.744-16.75 4.92 3.4 11.063 6.23 18.715 8.18 50.322 12.78 49.13-20.01 49.13-20.01s-2.84 44.867 46.955 51.506C706.445 69.1 705.215 23 705.215 23s9.042 20.82 24.334 14.388c15.29-6.43 3.572-23.81 3.572-23.81s32.47 47.77 73.583 23.81c41.113-23.956 28.935-70.17 28.935-70.17l-283.32-.2v-.02l-13.606.01L525.1-33l-.006.02-201.034.143c-.415-2.015-.748-3.163-.748-3.163l-352.15.25s-11.13 52.41 35.493 79.576c46.622 27.167 80.763-27.003 80.763-27.003s-13.29 19.71 4.053 27.003c17.35 7.294 27.6-16.317 27.6-16.317s-1.39 52.27 55.07 44.75c29.98-4 43.13-20.21 48.88-34.55z"/></svg>