<svg xmlns="http://www.w3.org/2000/svg" width="172" height="137"><path fill="#FFFEF4" fill-rule="evenodd" d="M142.732 17.265c-12.782-4.907-26.44-3.577-37.726 2.484C98.983 13.125 91.394 7.78 82.5 4.364c-30.87-11.85-65.66 3.97-77.7 35.34-12.04 31.366 3.226 66.4 34.096 78.25 8.908 3.42 18.14 4.523 27.06 3.626 4.57 4.984 10.313 9.007 17.03 11.586 23.528 9.03 50.04-3.027 59.217-26.933.378-.986.708-1.978 1.016-2.972 11.275-4.726 20.73-13.94 25.494-26.36 9.177-23.904-2.457-50.605-25.984-59.636z"/></svg>