<?xml version="1.0" encoding="UTF-8" standalone="no"?>
<svg width="27px" height="29px" viewBox="0 0 27 29" version="1.1" xmlns="http://www.w3.org/2000/svg" xmlns:xlink="http://www.w3.org/1999/xlink">
    <!-- Generator: sketchtool 41.2 (35397) - http://www.bohemiancoding.com/sketch -->
    <title>2E8C7D32-C459-46E0-9789-55C4C664C2FA</title>
    <desc>Created with sketchtool.</desc>
    <defs></defs>
    <g id="Bookmarking" stroke="none" stroke-width="1" fill="none" fill-rule="evenodd">
        <g id="Desktop-HD" transform="translate(-432.000000, -1197.000000)">
            <g id="Group-5" transform="translate(433.000000, 1198.000000)">
                <g id="Group-4">
                    <polyline id="Path-4-Copy" stroke="#25AAE1" stroke-linecap="round" stroke-linejoin="round" transform="translate(23.484877, 1.984998) scale(-1, 1) rotate(-90.000000) translate(-23.484877, -1.984998) " points="21.4998789 0.000121147286 25.4647872 0.00528977766 25.4698754 3.9698754"></polyline>
                    <path d="M24.8015423,0.744207654 L10.4565217,15.0892282" id="Line-Copy-2" stroke="#25AAE1" stroke-linecap="round" stroke-linejoin="round"></path>
                    <path d="M12.5,27 C19.4035594,27 25,21.4035594 25,14.5 C25,12.0070736 24.2702322,9.68459364 23.0126718,7.73453514 C21.7551113,5.78447663 20.6167431,4.80767192 19.0034321,3.82289913 C17.1087557,2.66637955 14.8821985,2 12.5,2 C5.59644063,2 0,7.59644063 0,14.5 C0,21.4035594 5.59644063,27 12.5,27 Z" id="Oval-2-Copy-5" stroke="#25AAE1"></path>
                    <path d="" id="Path-2-Copy" stroke="#979797"></path>
                </g>
            </g>
        </g>
    </g>
</svg>