<svg xmlns="http://www.w3.org/2000/svg" width="27" height="27"><g fill="none" fill-rule="evenodd"><path fill="#999" stroke="#979797" stroke-width=".35" d="M9.984 16.152c-.388 0-.9.26-1.57.796-.515.414-.786.808-.8 1.17-.02.522.492 1.01.947 1.443.1.09.19.18.27.26.17.17.49.26.91.26.78 0 1.8-.31 2.88-.87 1.26-.66 2.56-1.63 3.76-2.83 1.55-1.54 2.73-3.26 3.32-4.83.58-1.52.43-2.41.13-2.7-.08-.08-.17-.17-.25-.26-.42-.44-.9-.95-1.41-.95-.37 0-.77.27-1.2.8-.59.73-.84 1.29-.79 1.69.05.36.34.64.71 1l.15.15c.388.39.31 1-.22 1.82-.352.55-.93 1.23-1.714 2.01-1.49 1.49-2.51 2.18-3.21 2.18-.243 0-.453-.08-.613-.24l-.143-.15c-.44-.46-.71-.71-1.11-.71m-.29 4.51c-.585 0-1.05-.154-1.34-.443-.08-.08-.163-.16-.254-.248-.52-.497-1.17-1.115-1.136-1.917.024-.55.36-1.08 1.03-1.62.793-.635 1.414-.933 1.953-.933.67 0 1.1.43 1.555.89.047.04.093.09.143.14.03.03.08.06.18.06.29 0 1.03-.26 2.78-2 .75-.75 1.31-1.39 1.64-1.91.33-.51.45-.9.3-1.05l-.14-.15c-.41-.41-.8-.79-.88-1.36-.08-.6.21-1.26.92-2.16.55-.698 1.1-1.03 1.67-1.03.78 0 1.38.63 1.86 1.14l.25.25c.3.293.45.77.44 1.372 0 .57-.15 1.252-.43 1.98-.62 1.65-1.85 3.444-3.45 5.05-1.24 1.24-2.59 2.26-3.91 2.943-1.16.615-2.283.95-3.152.95"/><path stroke="#999" d="M13.5 26C6.608 26 1 20.392 1 13.5S6.608 1 13.5 1 26 6.608 26 13.5 20.392 26 13.5 26" opacity=".99"/></g></svg>