<?xml version="1.0" encoding="UTF-8" standalone="no"?>
<svg width="27px" height="27px" viewBox="0 0 27 27" version="1.1" xmlns="http://www.w3.org/2000/svg" xmlns:xlink="http://www.w3.org/1999/xlink">
    <!-- Generator: sketchtool 40.2 (33826) - http://www.bohemiancoding.com/sketch -->
    <title>77567E7A-1952-4D34-AF59-659AF4CB24A2</title>
    <desc>Created with sketchtool.</desc>
    <defs></defs>
    <g id="Page-1" stroke="none" stroke-width="1" fill="none" fill-rule="evenodd">
        <g id="Desktop-HD-Copy-2" transform="translate(-584.000000, -440.000000)">
            <g id="Contact" transform="translate(585.000000, 441.000000)">
                <g id="Group-3">
                    <path d="M8.98397716,15.1523864 C8.59602261,15.1523864 8.08295443,15.4118182 7.41545443,15.9484091 C6.89931807,16.3622727 6.62795443,16.7560227 6.61363625,17.1177273 C6.5931817,17.6396591 7.10624988,18.1292045 7.56102261,18.5607955 C7.6544317,18.6484091 7.74204534,18.7329545 7.82659079,18.8175 C7.9956817,18.9865909 8.31613625,19.08 8.73034079,19.08 C9.50284079,19.08 10.5262499,18.7707955 11.6079544,18.2052273 C12.8706817,17.54625 14.170909,16.5695455 15.3664772,15.3739773 C16.9118181,13.8286364 18.089659,12.1111364 18.6814772,10.5426136 C19.2531817,9.02352273 19.1072726,8.13443182 18.8069317,7.83681818 C18.7223862,7.75227273 18.6378408,7.665 18.5505681,7.57159091 C18.1274999,7.12840909 17.6495453,6.62386364 17.1392044,6.62386364 C16.7689772,6.62386364 16.3667044,6.89522727 15.9378408,7.42568182 C15.3490908,8.15761364 15.0923862,8.70852273 15.1479544,9.11113636 C15.1973862,9.46670455 15.4861362,9.74965909 15.8532953,10.1110227 C15.9030681,10.1577273 15.9497726,10.2075 15.9992044,10.2569318 C16.3840908,10.6418182 16.3111362,11.2510227 15.7776135,12.0705682 C15.4217044,12.61875 14.8445453,13.2920455 14.0601135,14.0764773 C12.5730681,15.5635227 11.5527272,16.2576136 10.8528408,16.2576136 C10.6107953,16.2576136 10.4011362,16.1727273 10.2405681,16.0155682 C10.1911362,15.9657955 10.1413635,15.9163636 10.0949999,15.8696591 C9.65181807,15.4090909 9.37772716,15.1523864 8.98397716,15.1523864 M8.73306807,19.695 C8.14704534,19.695 7.68340897,19.5405682 7.39499988,19.2518182 C7.31624988,19.1730682 7.22863625,19.0915909 7.13829534,19.0039773 C6.61636352,18.5082955 5.96624988,17.8902273 6.00136352,17.0884091 C6.02454534,16.5375 6.35999988,16.0067045 7.03056807,15.4673864 C7.82352261,14.8315909 8.44465897,14.5343182 8.98397716,14.5343182 C9.65454534,14.5343182 10.0830681,14.9686364 10.5381817,15.4295455 C10.5845453,15.4759091 10.6312499,15.5256818 10.6810226,15.5723864 C10.7099999,15.6013636 10.7567044,15.6334091 10.855909,15.6334091 C11.144659,15.6334091 11.8881817,15.3739773 13.6288635,13.6332955 C14.380909,12.8809091 14.932159,12.2396591 15.2645453,11.7265909 C15.5969317,11.21625 15.7104544,10.8255682 15.5676135,10.6827273 C15.5181817,10.6329545 15.4714772,10.58625 15.4247726,10.5398864 C15.010909,10.1314773 14.6198862,9.74965909 14.5414772,9.18681818 C14.4569317,8.59193182 14.7426135,7.92715909 15.4598862,7.03227273 C16.0165908,6.33818182 16.5678408,6 17.1392044,6 C17.9120453,6 18.5123862,6.63272727 18.9937499,7.14 C19.0782953,7.23034091 19.1597726,7.31488636 19.2385226,7.39363636 C19.5357953,7.69125 19.6874999,8.16647727 19.6817044,8.76988636 C19.675909,9.33852273 19.5272726,10.02375 19.2531817,10.7526136 C18.6320453,12.4029545 17.4044317,14.1961364 15.7980681,15.8025 C14.5588635,17.0417045 13.2088635,18.0593182 11.8881817,18.7445455 C10.724659,19.3598864 9.60204534,19.695 8.73306807,19.695" id="Fill-1-Copy-3" stroke="#979797" stroke-width="0.35" fill="#999999"></path>
                    <path d="M12.5,25 C5.60775862,25 2.27373675e-13,19.3922414 2.27373675e-13,12.5 C2.27373675e-13,5.60775862 5.60775862,0 12.5,0 C19.3922414,0 25,5.60775862 25,12.5 C25,19.3922414 19.3922414,25 12.5,25" id="Fill-1-Copy-5" stroke="#999999" opacity="0.98999995"></path>
                </g>
            </g>
        </g>
    </g>
</svg>