<?xml version="1.0" encoding="UTF-8" standalone="no"?>
<svg width="17px" height="15px" viewBox="0 0 17 15" version="1.1" xmlns="http://www.w3.org/2000/svg" xmlns:xlink="http://www.w3.org/1999/xlink">
    <!-- Generator: sketchtool 41.2 (35397) - http://www.bohemiancoding.com/sketch -->
    <title>13466A97-DA09-4069-9BD0-3ABE6A11C9A0</title>
    <desc>Created with sketchtool.</desc>
    <defs></defs>
    <g id="Collaboration" stroke="none" stroke-width="1" fill="none" fill-rule="evenodd">
        <g id="Desktop-HD-Copy" transform="translate(-429.000000, -746.000000)" fill="#DBCA17">
            <path d="M435.226998,759.01095 C433.600391,757.344697 431.970394,755.681134 430.362998,753.995284 C429.118746,752.691026 428.708139,751.121613 429.206518,749.377351 C429.70226,747.642696 430.861754,746.521741 432.595345,746.130541 C434.337977,745.737419 435.82671,746.279259 437.028772,747.628093 C437.076237,747.681124 437.120311,747.73723 437.182091,747.811396 C437.233322,747.753369 437.27815,747.70226 437.323355,747.65115 C438.574765,746.235066 440.129798,745.690921 441.931949,746.170506 C443.758586,746.656625 444.895854,747.917074 445.266154,749.810438 C445.582209,751.427502 445.123007,752.845892 443.986491,754.021031 C441.799726,756.282538 439.60618,758.537897 437.416024,760.795946 C437.345957,760.867807 437.27815,760.941205 437.222775,761 C436.544331,760.324814 435.876812,759.676913 435.226998,759.01095 Z" id="Fill-1-Copy"></path>
        </g>
    </g>
</svg>