<?xml version="1.0" encoding="UTF-8" standalone="no"?>
<svg width="339px" height="267px" viewBox="0 0 339 267" version="1.1" xmlns="http://www.w3.org/2000/svg" xmlns:xlink="http://www.w3.org/1999/xlink">
    <!-- Generator: sketchtool 40.2 (33826) - http://www.bohemiancoding.com/sketch -->
    <title>B004F36F-31D2-44B9-9287-5213AB164BAB</title>
    <desc>Created with sketchtool.</desc>
    <defs></defs>
    <g id="Page-1" stroke="none" stroke-width="1" fill="#fff" fill-rule="evenodd">
        <g id="Desktop-HD-Copy-2" transform="translate(-1006.000000, -282.000000)" stroke="#5AC5F1" stroke-width="1.5">
            <path d="M1343.33333,376.664453 C1343.33333,324.934993 1302.03007,283 1251.08003,283 C1223.40058,283 1198.58408,295.396258 1181.67414,314.998138 C1165.50693,306.869161 1147.31018,302.282589 1128.04684,302.282589 C1061.1973,302.282589 1007,357.304199 1007,425.17943 C1007,493.050346 1061.1973,548.076271 1128.04684,548.076271 C1147.33609,548.076271 1165.56306,543.468125 1181.74755,535.321889 C1193.98524,541.409992 1207.73859,544.840214 1222.2865,544.840214 C1273.23654,544.840214 1314.5398,502.905221 1314.5398,451.17576 C1314.5398,449.044277 1314.4448,446.934367 1314.30662,444.837402 C1332.16656,427.755332 1343.33333,403.540991 1343.33333,376.664453" id="Fill-1"></path>
        </g>
    </g>
</svg>