<svg xmlns="http://www.w3.org/2000/svg" width="339" height="267"><path fill="none" stroke="#5AC5F1" stroke-width="1.5" d="M337.333 94.664C337.333 42.934 296.03 1 245.08 1c-27.68 0-52.496 12.396-69.406 31.998-16.167-8.13-34.364-12.715-53.627-12.715C55.197 20.283 1 75.303 1 143.18c0 67.87 54.197 122.896 121.047 122.896 19.29 0 37.516-4.608 53.7-12.754 12.238 6.088 25.992 9.518 40.54 9.518 50.95 0 92.253-41.935 92.253-93.664 0-2.132-.095-4.242-.233-6.34 17.86-17.08 29.026-41.295 29.026-68.172"/></svg>