<?xml version="1.0" encoding="UTF-8" standalone="no"?>
<svg width="27px" height="27px" viewBox="0 0 27 27" version="1.1" xmlns="http://www.w3.org/2000/svg" xmlns:xlink="http://www.w3.org/1999/xlink">
    <!-- Generator: sketchtool 41.2 (35397) - http://www.bohemiancoding.com/sketch -->
    <title>39657F4D-CB16-48F8-8E08-B0B88586DE04</title>
    <desc>Created with sketchtool.</desc>
    <defs></defs>
    <g id="Collaboration" stroke="none" stroke-width="1" fill="none" fill-rule="evenodd">
        <g id="Desktop-HD-Copy" transform="translate(-431.000000, -789.000000)" stroke="#666666">
            <g id="Group-6-Copy" transform="translate(432.000000, 790.000000)">
                <circle id="Combined-Shape-Copy" cx="12.5" cy="12.5" r="12.5"></circle>
                <path d="M11.5664651,17.541363 C10.37362,16.3194445 9.17828863,15.0994986 7.99953221,13.8632079 C7.08708027,12.9067523 6.78596836,11.7558494 7.15144639,10.4767239 C7.51499067,9.20464363 8.36528649,8.38261036 9.63658647,8.09573005 C10.9145164,7.8074407 12.0062543,8.20478966 12.8877663,9.19393494 C12.9225737,9.23282441 12.9548949,9.27396834 13.0001998,9.32835724 C13.0377697,9.28580427 13.0706434,9.24832384 13.1037934,9.2108434 C14.021494,8.17238176 15.1618518,7.77334196 16.4834292,8.12503806 C17.8229628,8.48152489 18.6569599,9.40585438 18.9285131,10.7943213 C19.1602864,11.9801684 18.8235383,13.0203209 17.9900937,13.882089 C16.3864656,15.5405278 14.777865,17.1944576 13.1717507,18.8503601 C13.1203683,18.9030581 13.0706434,18.9568834 13.0300348,19 C12.5325095,18.5048637 12.0429955,18.0297358 11.5664651,17.541363 Z" id="Fill-1" stroke-linecap="round" stroke-linejoin="round"></path>
            </g>
        </g>
    </g>
</svg>