<?xml version="1.0" encoding="UTF-8" standalone="no"?>
<svg width="27px" height="27px" viewBox="0 0 27 27" version="1.1" xmlns="http://www.w3.org/2000/svg" xmlns:xlink="http://www.w3.org/1999/xlink">
    <!-- Generator: sketchtool 40.2 (33826) - http://www.bohemiancoding.com/sketch -->
    <title>CA868DF2-BFBB-4829-BF1D-3E4046C504F9</title>
    <desc>Created with sketchtool.</desc>
    <defs></defs>
    <g id="Page-1" stroke="none" stroke-width="1" fill="none" fill-rule="evenodd" opacity="0.98999995">
        <g id="Desktop-HD-Copy-2" transform="translate(-584.000000, -473.000000)">
            <g id="User" transform="translate(585.000000, 474.000000)">
                <g id="Group-3">
                    <path d="M12.5,25 C5.60775862,25 2.27373675e-13,19.3922414 2.27373675e-13,12.5 C2.27373675e-13,5.60775862 5.60775862,0 12.5,0 C19.3922414,0 25,5.60775862 25,12.5 C25,19.3922414 19.3922414,25 12.5,25" id="Fill-1-Copy-4" stroke="#999999"></path>
                    <g id="Group-2-Copy" transform="translate(6.000000, 4.000000)" stroke="#979797">
                        <ellipse id="Oval-3" cx="6.5" cy="3.5" rx="3.5" ry="3.5"></ellipse>
                        <path d="M13,14.363961 C13,10.8492424 10.0898509,8 6.5,8 C2.91014913,8 0,10.8492424 0,14.363961 C0,17.8786797 13,17.8786797 13,14.363961 Z" id="Oval-3-Copy"></path>
                    </g>
                </g>
            </g>
        </g>
    </g>
</svg>