<svg xmlns="http://www.w3.org/2000/svg" viewBox="0 0 100 100" preserveAspectRatio="xMidYMid" class="uil-default"><path fill="none" d="M0 0h100v100H0z" class="bk"/><rect width="7" height="20" x="46.5" y="40" fill="#070708" rx="5" ry="5" transform="translate(0 -30)"><animate attributeName="opacity" from="1" to="0" dur="1s" begin="0s" repeatCount="indefinite"/></rect><rect width="7" height="20" x="46.5" y="40" fill="#070708" rx="5" ry="5" transform="rotate(25.714 115.72 65)"><animate attributeName="opacity" from="1" to="0" dur="1s" begin="0.07142857142857142s" repeatCount="indefinite"/></rect><rect width="7" height="20" x="46.5" y="40" fill="#070708" rx="5" ry="5" transform="rotate(51.43 81.148 65)"><animate attributeName="opacity" from="1" to="0" dur="1s" begin="0.14285714285714285s" repeatCount="indefinite"/></rect><rect width="7" height="20" x="46.5" y="40" fill="#070708" rx="5" ry="5" transform="rotate(77.143 68.81 65)"><animate attributeName="opacity" from="1" to="0" dur="1s" begin="0.21428571428571427s" repeatCount="indefinite"/></rect><rect width="7" height="20" x="46.5" y="40" fill="#070708" rx="5" ry="5" transform="rotate(102.857 61.962 65)"><animate attributeName="opacity" from="1" to="0" dur="1s" begin="0.2857142857142857s" repeatCount="indefinite"/></rect><rect width="7" height="20" x="46.5" y="40" fill="#070708" rx="5" ry="5" transform="rotate(128.57 57.224 65)"><animate attributeName="opacity" from="1" to="0" dur="1s" begin="0.35714285714285715s" repeatCount="indefinite"/></rect><rect width="7" height="20" x="46.5" y="40" fill="#070708" rx="5" ry="5" transform="rotate(154.286 53.424 65)"><animate attributeName="opacity" from="1" to="0" dur="1s" begin="0.42857142857142855s" repeatCount="indefinite"/></rect><rect width="7" height="20" x="46.5" y="40" fill="#070708" rx="5" ry="5" transform="rotate(180 50 65)"><animate attributeName="opacity" from="1" to="0" dur="1s" begin="0.5s" repeatCount="indefinite"/></rect><rect width="7" height="20" x="46.5" y="40" fill="#070708" rx="5" ry="5" transform="rotate(-154.286 46.576 65)"><animate attributeName="opacity" from="1" to="0" dur="1s" begin="0.5714285714285714s" repeatCount="indefinite"/></rect><rect width="7" height="20" x="46.5" y="40" fill="#070708" rx="5" ry="5" transform="rotate(-128.57 42.776 65)"><animate attributeName="opacity" from="1" to="0" dur="1s" begin="0.6428571428571429s" repeatCount="indefinite"/></rect><rect width="7" height="20" x="46.5" y="40" fill="#070708" rx="5" ry="5" transform="rotate(-102.857 38.038 65)"><animate attributeName="opacity" from="1" to="0" dur="1s" begin="0.7142857142857143s" repeatCount="indefinite"/></rect><rect width="7" height="20" x="46.5" y="40" fill="#070708" rx="5" ry="5" transform="rotate(-77.143 31.19 65)"><animate attributeName="opacity" from="1" to="0" dur="1s" begin="0.7857142857142857s" repeatCount="indefinite"/></rect><rect width="7" height="20" x="46.5" y="40" fill="#070708" rx="5" ry="5" transform="rotate(-51.43 18.852 65)"><animate attributeName="opacity" from="1" to="0" dur="1s" begin="0.8571428571428571s" repeatCount="indefinite"/></rect><rect width="7" height="20" x="46.5" y="40" fill="#070708" rx="5" ry="5" transform="rotate(-25.714 -15.72 65)"><animate attributeName="opacity" from="1" to="0" dur="1s" begin="0.9285714285714286s" repeatCount="indefinite"/></rect></svg>